<mxfile host="app.diagrams.net" agent="Mozilla/5.0 (Windows NT 10.0; Win64; x64) AppleWebKit/537.36 (KHTML, like Gecko) Chrome/134.0.0.0 Safari/537.36" version="26.1.3">
  <diagram name="Trang-1" id="kx94N_8oCBKjUs9X1vsF">
    <mxGraphModel dx="2140" dy="653" grid="1" gridSize="10" guides="1" tooltips="1" connect="1" arrows="1" fold="1" page="1" pageScale="1" pageWidth="827" pageHeight="1169" math="0" shadow="0">
      <root>
        <mxCell id="0" />
        <mxCell id="1" parent="0" />
        <mxCell id="Sl7XYpyIjwzYdAgXSd3I-1" value="Quản lý sách" style="rounded=0;whiteSpace=wrap;html=1;" vertex="1" parent="1">
          <mxGeometry x="-170" width="190" height="100" as="geometry" />
        </mxCell>
        <mxCell id="Sl7XYpyIjwzYdAgXSd3I-2" value="Quản lý người dùng" style="rounded=0;whiteSpace=wrap;html=1;" vertex="1" parent="1">
          <mxGeometry x="-180" y="320" width="180" height="100" as="geometry" />
        </mxCell>
        <mxCell id="Sl7XYpyIjwzYdAgXSd3I-3" value="Quản lý mượn trả sách" style="rounded=0;whiteSpace=wrap;html=1;" vertex="1" parent="1">
          <mxGeometry x="210" width="210" height="100" as="geometry" />
        </mxCell>
        <mxCell id="Sl7XYpyIjwzYdAgXSd3I-4" value="Quản lý báo cáo thống kê" style="rounded=0;whiteSpace=wrap;html=1;" vertex="1" parent="1">
          <mxGeometry x="220" y="320" width="220" height="90" as="geometry" />
        </mxCell>
        <mxCell id="Sl7XYpyIjwzYdAgXSd3I-5" value="Nhập sách mới" style="rounded=0;whiteSpace=wrap;html=1;" vertex="1" parent="1">
          <mxGeometry x="-270" y="160" width="80" height="40" as="geometry" />
        </mxCell>
        <mxCell id="Sl7XYpyIjwzYdAgXSd3I-6" value="Cập nhập thông tin sách" style="rounded=0;whiteSpace=wrap;html=1;points=[[0,0,0,0,0],[0,0.25,0,0,0],[0,0.5,0,0,0],[0,0.75,0,0,0],[0,1,0,0,0],[0.25,0,0,0,0],[0.25,1,0,0,0],[0.5,0,0,0,0],[0.5,1,0,0,0],[0.75,0,0,0,0],[0.75,1,0,0,0],[1,0,0,0,0],[1,0.25,0,0,0],[1,0.5,0,0,0],[1,0.75,0,0,0],[1,1,0,0,0]];" vertex="1" parent="1">
          <mxGeometry x="-180" y="160" width="80" height="40" as="geometry" />
        </mxCell>
        <mxCell id="Sl7XYpyIjwzYdAgXSd3I-7" value="Xóa sách" style="rounded=0;whiteSpace=wrap;html=1;" vertex="1" parent="1">
          <mxGeometry x="-90" y="160" width="70" height="40" as="geometry" />
        </mxCell>
        <mxCell id="Sl7XYpyIjwzYdAgXSd3I-8" value="Tìm kiếm sách" style="rounded=0;whiteSpace=wrap;html=1;" vertex="1" parent="1">
          <mxGeometry x="-10" y="160" width="80" height="40" as="geometry" />
        </mxCell>
        <mxCell id="Sl7XYpyIjwzYdAgXSd3I-9" value="" style="endArrow=none;html=1;rounded=0;entryX=0.5;entryY=1;entryDx=0;entryDy=0;exitX=0.5;exitY=0;exitDx=0;exitDy=0;" edge="1" parent="1" source="Sl7XYpyIjwzYdAgXSd3I-5" target="Sl7XYpyIjwzYdAgXSd3I-1">
          <mxGeometry width="50" height="50" relative="1" as="geometry">
            <mxPoint x="-20" y="350" as="sourcePoint" />
            <mxPoint x="30" y="300" as="targetPoint" />
          </mxGeometry>
        </mxCell>
        <mxCell id="Sl7XYpyIjwzYdAgXSd3I-10" value="" style="endArrow=none;html=1;rounded=0;entryX=0.5;entryY=1;entryDx=0;entryDy=0;exitX=0.5;exitY=0;exitDx=0;exitDy=0;exitPerimeter=0;" edge="1" parent="1" source="Sl7XYpyIjwzYdAgXSd3I-6" target="Sl7XYpyIjwzYdAgXSd3I-1">
          <mxGeometry width="50" height="50" relative="1" as="geometry">
            <mxPoint x="-20" y="350" as="sourcePoint" />
            <mxPoint x="30" y="300" as="targetPoint" />
          </mxGeometry>
        </mxCell>
        <mxCell id="Sl7XYpyIjwzYdAgXSd3I-11" value="" style="endArrow=none;html=1;rounded=0;entryX=0.5;entryY=1;entryDx=0;entryDy=0;exitX=0.5;exitY=0;exitDx=0;exitDy=0;" edge="1" parent="1" source="Sl7XYpyIjwzYdAgXSd3I-7" target="Sl7XYpyIjwzYdAgXSd3I-1">
          <mxGeometry width="50" height="50" relative="1" as="geometry">
            <mxPoint x="-130" y="170" as="sourcePoint" />
            <mxPoint x="-60" y="110" as="targetPoint" />
          </mxGeometry>
        </mxCell>
        <mxCell id="Sl7XYpyIjwzYdAgXSd3I-12" value="" style="endArrow=none;html=1;rounded=0;entryX=0.5;entryY=1;entryDx=0;entryDy=0;exitX=0.5;exitY=0;exitDx=0;exitDy=0;" edge="1" parent="1" source="Sl7XYpyIjwzYdAgXSd3I-8" target="Sl7XYpyIjwzYdAgXSd3I-1">
          <mxGeometry width="50" height="50" relative="1" as="geometry">
            <mxPoint x="-45" y="170" as="sourcePoint" />
            <mxPoint x="-60" y="110" as="targetPoint" />
          </mxGeometry>
        </mxCell>
        <mxCell id="Sl7XYpyIjwzYdAgXSd3I-13" value="Thêm người dùng mới" style="rounded=0;whiteSpace=wrap;html=1;" vertex="1" parent="1">
          <mxGeometry x="-290" y="480" width="80" height="40" as="geometry" />
        </mxCell>
        <mxCell id="Sl7XYpyIjwzYdAgXSd3I-14" value="Cập nhập thông tin người dùng" style="rounded=0;whiteSpace=wrap;html=1;points=[[0,0,0,0,0],[0,0.25,0,0,0],[0,0.5,0,0,0],[0,0.75,0,0,0],[0,1,0,0,0],[0.25,0,0,0,0],[0.25,1,0,0,0],[0.5,0,0,0,0],[0.5,1,0,0,0],[0.75,0,0,0,0],[0.75,1,0,0,0],[1,0,0,0,0],[1,0.25,0,0,0],[1,0.5,0,0,0],[1,0.75,0,0,0],[1,1,0,0,0]];" vertex="1" parent="1">
          <mxGeometry x="-200" y="480" width="80" height="40" as="geometry" />
        </mxCell>
        <mxCell id="Sl7XYpyIjwzYdAgXSd3I-15" value="xóa người dùng" style="rounded=0;whiteSpace=wrap;html=1;" vertex="1" parent="1">
          <mxGeometry x="-100" y="480" width="70" height="40" as="geometry" />
        </mxCell>
        <mxCell id="Sl7XYpyIjwzYdAgXSd3I-16" value="Quản lý thành viên" style="rounded=0;whiteSpace=wrap;html=1;" vertex="1" parent="1">
          <mxGeometry x="-20" y="480" width="80" height="40" as="geometry" />
        </mxCell>
        <mxCell id="Sl7XYpyIjwzYdAgXSd3I-17" value="" style="endArrow=none;html=1;rounded=0;entryX=0.5;entryY=1;entryDx=0;entryDy=0;exitX=0.5;exitY=0;exitDx=0;exitDy=0;" edge="1" source="Sl7XYpyIjwzYdAgXSd3I-13" parent="1">
          <mxGeometry width="50" height="50" relative="1" as="geometry">
            <mxPoint x="-40" y="670" as="sourcePoint" />
            <mxPoint x="-90" y="420" as="targetPoint" />
          </mxGeometry>
        </mxCell>
        <mxCell id="Sl7XYpyIjwzYdAgXSd3I-18" value="" style="endArrow=none;html=1;rounded=0;entryX=0.5;entryY=1;entryDx=0;entryDy=0;exitX=0.5;exitY=0;exitDx=0;exitDy=0;exitPerimeter=0;" edge="1" source="Sl7XYpyIjwzYdAgXSd3I-14" parent="1">
          <mxGeometry width="50" height="50" relative="1" as="geometry">
            <mxPoint x="-40" y="670" as="sourcePoint" />
            <mxPoint x="-90" y="420" as="targetPoint" />
          </mxGeometry>
        </mxCell>
        <mxCell id="Sl7XYpyIjwzYdAgXSd3I-19" value="" style="endArrow=none;html=1;rounded=0;entryX=0.5;entryY=1;entryDx=0;entryDy=0;exitX=0.5;exitY=0;exitDx=0;exitDy=0;" edge="1" source="Sl7XYpyIjwzYdAgXSd3I-15" parent="1">
          <mxGeometry width="50" height="50" relative="1" as="geometry">
            <mxPoint x="-150" y="490" as="sourcePoint" />
            <mxPoint x="-90" y="420" as="targetPoint" />
          </mxGeometry>
        </mxCell>
        <mxCell id="Sl7XYpyIjwzYdAgXSd3I-20" value="" style="endArrow=none;html=1;rounded=0;entryX=0.5;entryY=1;entryDx=0;entryDy=0;exitX=0.5;exitY=0;exitDx=0;exitDy=0;" edge="1" source="Sl7XYpyIjwzYdAgXSd3I-16" parent="1">
          <mxGeometry width="50" height="50" relative="1" as="geometry">
            <mxPoint x="-65" y="490" as="sourcePoint" />
            <mxPoint x="-90" y="420" as="targetPoint" />
          </mxGeometry>
        </mxCell>
        <mxCell id="Sl7XYpyIjwzYdAgXSd3I-21" value="Mượn sách" style="rounded=0;whiteSpace=wrap;html=1;" vertex="1" parent="1">
          <mxGeometry x="120" y="160" width="80" height="40" as="geometry" />
        </mxCell>
        <mxCell id="Sl7XYpyIjwzYdAgXSd3I-22" value="Trả sách" style="rounded=0;whiteSpace=wrap;html=1;points=[[0,0,0,0,0],[0,0.25,0,0,0],[0,0.5,0,0,0],[0,0.75,0,0,0],[0,1,0,0,0],[0.25,0,0,0,0],[0.25,1,0,0,0],[0.5,0,0,0,0],[0.5,1,0,0,0],[0.75,0,0,0,0],[0.75,1,0,0,0],[1,0,0,0,0],[1,0.25,0,0,0],[1,0.5,0,0,0],[1,0.75,0,0,0],[1,1,0,0,0]];" vertex="1" parent="1">
          <mxGeometry x="210" y="160" width="80" height="40" as="geometry" />
        </mxCell>
        <mxCell id="Sl7XYpyIjwzYdAgXSd3I-23" value="Gia hạn mượn sách" style="rounded=0;whiteSpace=wrap;html=1;" vertex="1" parent="1">
          <mxGeometry x="300" y="160" width="70" height="40" as="geometry" />
        </mxCell>
        <mxCell id="Sl7XYpyIjwzYdAgXSd3I-24" value="Phạt quá hạn" style="rounded=0;whiteSpace=wrap;html=1;align=center;" vertex="1" parent="1">
          <mxGeometry x="380" y="160" width="80" height="40" as="geometry" />
        </mxCell>
        <mxCell id="Sl7XYpyIjwzYdAgXSd3I-25" value="" style="endArrow=none;html=1;rounded=0;entryX=0.5;entryY=1;entryDx=0;entryDy=0;exitX=0.5;exitY=0;exitDx=0;exitDy=0;" edge="1" source="Sl7XYpyIjwzYdAgXSd3I-21" parent="1">
          <mxGeometry width="50" height="50" relative="1" as="geometry">
            <mxPoint x="370" y="350" as="sourcePoint" />
            <mxPoint x="320" y="100" as="targetPoint" />
          </mxGeometry>
        </mxCell>
        <mxCell id="Sl7XYpyIjwzYdAgXSd3I-26" value="" style="endArrow=none;html=1;rounded=0;entryX=0.5;entryY=1;entryDx=0;entryDy=0;exitX=0.5;exitY=0;exitDx=0;exitDy=0;exitPerimeter=0;" edge="1" source="Sl7XYpyIjwzYdAgXSd3I-22" parent="1">
          <mxGeometry width="50" height="50" relative="1" as="geometry">
            <mxPoint x="370" y="350" as="sourcePoint" />
            <mxPoint x="320" y="100" as="targetPoint" />
          </mxGeometry>
        </mxCell>
        <mxCell id="Sl7XYpyIjwzYdAgXSd3I-27" value="" style="endArrow=none;html=1;rounded=0;entryX=0.5;entryY=1;entryDx=0;entryDy=0;exitX=0.5;exitY=0;exitDx=0;exitDy=0;" edge="1" source="Sl7XYpyIjwzYdAgXSd3I-23" parent="1">
          <mxGeometry width="50" height="50" relative="1" as="geometry">
            <mxPoint x="260" y="170" as="sourcePoint" />
            <mxPoint x="320" y="100" as="targetPoint" />
          </mxGeometry>
        </mxCell>
        <mxCell id="Sl7XYpyIjwzYdAgXSd3I-28" value="" style="endArrow=none;html=1;rounded=0;entryX=0.5;entryY=1;entryDx=0;entryDy=0;exitX=0.5;exitY=0;exitDx=0;exitDy=0;" edge="1" source="Sl7XYpyIjwzYdAgXSd3I-24" parent="1">
          <mxGeometry width="50" height="50" relative="1" as="geometry">
            <mxPoint x="345" y="170" as="sourcePoint" />
            <mxPoint x="320" y="100" as="targetPoint" />
          </mxGeometry>
        </mxCell>
        <mxCell id="Sl7XYpyIjwzYdAgXSd3I-29" value="Báo cáo sách đang mượn" style="rounded=0;whiteSpace=wrap;html=1;" vertex="1" parent="1">
          <mxGeometry x="130" y="470" width="80" height="50" as="geometry" />
        </mxCell>
        <mxCell id="Sl7XYpyIjwzYdAgXSd3I-30" value="Bóa cáo số luoongh còn lại" style="rounded=0;whiteSpace=wrap;html=1;points=[[0,0,0,0,0],[0,0.25,0,0,0],[0,0.5,0,0,0],[0,0.75,0,0,0],[0,1,0,0,0],[0.25,0,0,0,0],[0.25,1,0,0,0],[0.5,0,0,0,0],[0.5,1,0,0,0],[0.75,0,0,0,0],[0.75,1,0,0,0],[1,0,0,0,0],[1,0.25,0,0,0],[1,0.5,0,0,0],[1,0.75,0,0,0],[1,1,0,0,0]];" vertex="1" parent="1">
          <mxGeometry x="240" y="470" width="80" height="50" as="geometry" />
        </mxCell>
        <mxCell id="Sl7XYpyIjwzYdAgXSd3I-31" value="&lt;p data-pm-slice=&quot;1 1 [&amp;quot;list&amp;quot;,{&amp;quot;spread&amp;quot;:false,&amp;quot;start&amp;quot;:454,&amp;quot;end&amp;quot;:552},&amp;quot;regular_list_item&amp;quot;,{&amp;quot;start&amp;quot;:517,&amp;quot;end&amp;quot;:552}]&quot;&gt;Thống kê lượt mượn theo tháng/năm&lt;/p&gt;" style="rounded=0;whiteSpace=wrap;html=1;" vertex="1" parent="1">
          <mxGeometry x="340" y="470" width="120" height="50" as="geometry" />
        </mxCell>
        <mxCell id="Sl7XYpyIjwzYdAgXSd3I-33" value="" style="endArrow=none;html=1;rounded=0;entryX=0.5;entryY=1;entryDx=0;entryDy=0;exitX=0.5;exitY=0;exitDx=0;exitDy=0;" edge="1" source="Sl7XYpyIjwzYdAgXSd3I-29" parent="1">
          <mxGeometry width="50" height="50" relative="1" as="geometry">
            <mxPoint x="380" y="660" as="sourcePoint" />
            <mxPoint x="330" y="410" as="targetPoint" />
          </mxGeometry>
        </mxCell>
        <mxCell id="Sl7XYpyIjwzYdAgXSd3I-34" value="" style="endArrow=none;html=1;rounded=0;entryX=0.5;entryY=1;entryDx=0;entryDy=0;exitX=0.5;exitY=0;exitDx=0;exitDy=0;exitPerimeter=0;" edge="1" source="Sl7XYpyIjwzYdAgXSd3I-30" parent="1">
          <mxGeometry width="50" height="50" relative="1" as="geometry">
            <mxPoint x="380" y="660" as="sourcePoint" />
            <mxPoint x="330" y="410" as="targetPoint" />
          </mxGeometry>
        </mxCell>
        <mxCell id="Sl7XYpyIjwzYdAgXSd3I-35" value="" style="endArrow=none;html=1;rounded=0;entryX=0.5;entryY=1;entryDx=0;entryDy=0;exitX=0.5;exitY=0;exitDx=0;exitDy=0;" edge="1" source="Sl7XYpyIjwzYdAgXSd3I-31" parent="1">
          <mxGeometry width="50" height="50" relative="1" as="geometry">
            <mxPoint x="270" y="480" as="sourcePoint" />
            <mxPoint x="330" y="410" as="targetPoint" />
          </mxGeometry>
        </mxCell>
      </root>
    </mxGraphModel>
  </diagram>
</mxfile>
